#!OML:ASF H:\Male1\Project 1\Capture day 1\Session 1\Male1.ASF
:FULLY-SPECIFIED
:DEGREES
2085
root 17.3466 15.1346 2.50827 1089.38 -91.6389 -1091.49
lowerback 8.69914 1.19131 -0.418775
upperback 1.79007 1.35411 -3.07219
thorax -2.95555 0.632398 -3.09668
lowerneck -25.5033 7.9308 -0.297598
upperneck 4.3967 -51.5439 -2.2787
head 212.612 -135.225 -0.0655872
rclavicle -5.86415e-015 3.97569e-014
rhumerus -30.3961 -9.32773 -7.13868
rradius 36.75
rwrist -26.3244
rhand -20.6785 -8.76343
rfingers 7.12502
rthumb 5.68475 -38.6672
lclavicle -5.86415e-015 3.97569e-014
lhumerus -14.8837 7.04983 0.262523
lradius 25.817
lwrist -3.41403
lhand -12.6741 12.5977
lfingers 7.12502
lthumb 13.4073 42.1462
rfemur -7.05736 23.4993 17.309
rtibia 33.6887
rfoot -43.5258 -23.8099
rtoes 5.32822
lfemur -6.64831 -26.513 -18.9922
ltibia 33.52
lfoot -30.1371 30.1117
ltoes 13.5686
2086
root 17.3471 15.1324 2.5081 1086.21 -91.6148 -1088.34
lowerback 8.82727 1.27942 -0.193336
upperback 1.75058 1.48783 -3.10012
thorax -3.05421 0.696326 -3.2725
lowerneck -25.5622 7.84288 0.333786
upperneck 4.36381 -51.4917 -2.32045
head 212.941 -133.32 -0.53698
rclavicle -2.78299e-015 -1.19271e-014
rhumerus -30.7759 -9.31822 -6.98019
rradius 36.7784
rwrist -26.3191
rhand -20.5553 -8.83931
rfingers 7.12502
rthumb 5.80368 -38.7398
lclavicle -2.78299e-015 -1.19271e-014
lhumerus -14.4541 7.10254 0.367938
lradius 25.6937
lwrist -3.56704
lhand -12.7637 12.7789
lfingers 7.12502
lthumb 13.3209 42.3331
rfemur -7.01716 23.5476 17.4283
rtibia 33.654
rfoot -43.5539 -23.8584
rtoes 5.2803
lfemur -6.64464 -26.5209 -18.9002
ltibia 33.5598
lfoot -30.185 30.0736
ltoes 13.4922
2087
root 17.3479 15.1314 2.50769 1085.89 -91.5823 -1088.03
lowerback 8.90381 1.33408 -0.0407807
upperback 1.74066 1.5704 -3.15383
thorax -3.09669 0.735252 -3.42664
lowerneck -25.6134 7.77728 0.911771
upperneck 4.33584 -51.4201 -2.3711
head 213.267 -131.577 -0.960291
rclavicle -7.15625e-015 2.14687e-014
rhumerus -31.033 -9.40931 -6.87496
rradius 36.7189
rwrist -26.2
rhand -20.2427 -8.66544
rfingers 7.12502
rthumb 6.10555 -38.5575
lclavicle -7.15625e-015 2.14687e-014
lhumerus -14.1779 7.18806 0.367127
lradius 25.71
lwrist -3.48618
lhand -12.8782 12.839
lfingers 7.12502
lthumb 13.2106 42.4004
rfemur -6.98698 23.6021 17.4638
rtibia 33.6594
rfoot -43.6154 -23.8723
rtoes 5.38511
lfemur -6.64409 -26.5224 -18.8839
ltibia 33.561
lfoot -30.194 30.0433
ltoes 13.3073
2088
root 17.3492 15.1322 2.50634 1089.12 -91.5508 -1091.25
lowerback 8.90652 1.37686 0.0146302
upperback 1.77939 1.62803 -3.23454
thorax -3.05063 0.762958 -3.54795
lowerneck -25.7306 7.72095 1.30007
upperneck 4.23792 -51.233 -2.35926
head 213.437 -130.465 -1.22475
rclavicle 3.47873e-015 2.38542e-015
rhumerus -31.2725 -9.46828 -6.85409
rradius 36.7256
rwrist -26.2048
rhand -20.2729 -8.62069
rfingers 7.12502
rthumb 6.07634 -38.5136
lclavicle 3.47873e-015 2.38542e-015
lhumerus -14.0142 7.16891 0.324149
lradius 25.8465
lwrist -3.22014
lhand -12.9366 12.7307
lfingers 7.12502
lthumb 13.1543 42.2957
rfemur -7.0259 23.6223 17.3792
rtibia 33.7319
rfoot -43.6518 -23.9137
rtoes 5.19938
lfemur -6.6466 -26.5256 -18.9544
ltibia 33.496
lfoot -30.1257 30.0342
ltoes 13.2389
2089
root 17.35 15.1323 2.5037 1099.87 -91.574 -1101.96
lowerback 8.84711 1.42577 -0.21105
upperback 1.84684 1.66711 -3.32852
thorax -2.94915 0.783442 -3.51929
lowerneck -25.93 7.69812 1.48982
upperneck 4.07536 -50.9892 -2.28616
head 213.601 -129.749 -1.53684
rclavicle -3.08116e-015 -8.74653e-015
rhumerus -31.4305 -9.63064 -6.82248
rradius 36.7287
rwrist -26.1666
rhand -20.488 -8.82093
rfingers 7.12502
rthumb 5.86867 -38.7197
lclavicle -3.08116e-015 -8.74653e-015
lhumerus -13.8696 7.26975 0.335998
lradius 25.8997
lwrist -3.19415
lhand -12.9081 12.6789
lfingers 7.12502
lthumb 13.1818 42.2422
rfemur -7.10214 23.5366 17.0499
rtibia 33.8443
rfoot -43.657 -23.8663
rtoes 4.89597
lfemur -6.65004 -26.5346 -19.2371
ltibia 33.3897
lfoot -30.0668 30.0248
ltoes 13.2431
2090
root 17.3497 15.1308 2.50079 1108.51 -91.6473 -1110.59
lowerback 8.81268 1.45589 -0.457534
upperback 1.8856 1.68052 -3.39254
thorax -2.89447 0.790923 -3.44623
lowerneck -25.9623 7.65735 1.65249
upperneck 2.90718 -49.5699 -1.39413
head 213.246 -130.332 -1.84161
rclavicle -5.06901e-015 4.77083e-015
rhumerus -31.4696 -9.74853 -6.85241
rradius 36.7145
rwrist -26.2112
rhand -20.6838 -8.97521
rfingers 7.12502
rthumb 5.67962 -38.8791
lclavicle -5.06901e-015 4.77083e-015
lhumerus -13.7711 7.43892 0.322347
lradius 25.8585
lwrist -3.35469
lhand -12.8626 12.7541
lfingers 7.12502
lthumb 13.2256 42.3145
rfemur -7.13779 23.4872 16.7795
rtibia 33.9482
rfoot -43.6823 -23.7816
rtoes 4.78393
lfemur -6.61782 -26.5486 -19.4933
ltibia 33.2899
lfoot -30.1038 30.0264
ltoes 13.2301
2091
root 17.3493 15.1299 2.49888 1110.78 -91.6399 -1112.86
lowerback 8.85387 1.47094 -0.477512
upperback 1.85893 1.69538 -3.42335
thorax -2.94382 0.797649 -3.47078
lowerneck -25.9441 7.67008 1.71733
upperneck 2.90729 -49.6411 -1.37539
head 213.468 -129.968 -2.15013
rclavicle -2.25621e-014 -3.18055e-015
rhumerus -31.5698 -9.59713 -6.9159
rradius 36.7699
rwrist -26.5016
rhand -20.7532 -9.00882
rfingers 7.12502
rthumb 5.61262 -38.9145
lclavicle -2.25621e-014 -3.18055e-015
lhumerus -13.6554 7.55557 0.271425
lradius 25.8095
lwrist -3.5611
lhand -12.8308 12.7464
lfingers 7.12502
lthumb 13.2563 42.3049
rfemur -7.14661 23.5334 16.7384
rtibia 33.9974
rfoot -43.6824 -23.8585
rtoes 4.67871
lfemur -6.59868 -26.5486 -19.5395
ltibia 33.2436
lfoot -30.0535 30.0591
ltoes 13.1494
2092
root 17.3507 15.1306 2.49783 1110.19 -91.5454 -1112.28
lowerback 8.90936 1.47462 -0.380177
upperback 1.8362 1.70887 -3.41057
thorax -2.99488 0.803588 -3.51639
lowerneck -25.9492 7.65044 1.75263
upperneck 2.87353 -49.5393 -1.36241
head 213.441 -129.894 -2.17083
rclavicle -5.06901e-015 -4.77083e-014
rhumerus -31.6924 -9.47303 -6.90717
rradius 36.7954
rwrist -26.565
rhand -20.806 -9.06806
rfingers 7.12502
rthumb 5.56168 -38.9751
lclavicle -5.06901e-015 -4.77083e-014
lhumerus -13.595 7.39558 0.252828
lradius 25.8723
lwrist -3.4889
lhand -12.8486 12.6572
lfingers 7.12502
lthumb 13.2391 42.2168
rfemur -7.12396 23.5502 16.8256
rtibia 33.97
rfoot -43.6692 -24.0112
rtoes 4.47798
lfemur -6.64093 -26.5212 -19.4446
ltibia 33.2725
lfoot -30.002 29.9982
ltoes 13.0786
2093
root 17.3535 15.1317 2.49673 1104.71 -91.3944 -1106.79
lowerback 8.93451 1.44835 -0.197976
upperback 1.83635 1.69591 -3.33292
thorax -3.00631 0.797009 -3.53768
lowerneck -25.9864 7.63 1.78564
upperneck 2.85936 -49.4778 -1.3834
head 213.421 -129.748 -2.12607
rclavicle -1.17283e-014 2.14687e-014
rhumerus -31.6824 -9.42819 -6.93786
rradius 36.7688
rwrist -26.4253
rhand -20.7798 -9.04664
rfingers 7.12502
rthumb 5.58694 -38.953
lclavicle -1.17283e-014 2.14687e-014
lhumerus -13.6753 6.90884 0.241805
lradius 26.0152
lwrist -3.00767
lhand -12.9347 12.6757
lfingers 7.12502
lthumb 13.1561 42.2407
rfemur -7.09671 23.5609 17.0662
rtibia 33.9093
rfoot -43.6837 -24.1558
rtoes 4.29679
lfemur -6.72601 -26.4745 -19.1839
ltibia 33.3314
lfoot -30.0206 29.8564
ltoes 12.8904
2094
root 17.3562 15.1317 2.49472 1096.72 -91.2935 -1098.8
lowerback 8.96923 1.42477 -0.0249984
upperback 1.83445 1.68637 -3.23677
thorax -3.02585 0.792218 -3.53521
lowerneck -25.9927 7.63955 1.68424
upperneck 2.88001 -49.5468 -1.40201
head 213.486 -129.803 -2.17983
rclavicle -3.28989e-014 2.94201e-014
rhumerus -31.5843 -9.43888 -6.99214
rradius 36.748
rwrist -26.4246
rhand -20.6169 -9.02248
rfingers 7.12502
rthumb 5.74424 -38.9246
lclavicle -3.28989e-014 2.94201e-014
lhumerus -13.7419 6.72954 0.237118
lradius 26.0356
lwrist -2.85061
lhand -13.011 12.6811
lfingers 7.12502
lthumb 13.0826 42.2508
rfemur -7.07132 23.6534 17.3322
rtibia 33.8598
rfoot -43.7307 -24.2484
rtoes 4.35611
lfemur -6.8028 -26.3847 -18.8998
ltibia 33.3767
lfoot -29.8518 29.8186
ltoes 12.4651
2095
root 17.3574 15.1324 2.49289 1098.83 -91.313 -1100.91
lowerback 9.00726 1.45965 -0.081244
upperback 1.84504 1.7271 -3.21978
thorax -3.03577 0.81273 -3.49126
lowerneck -26.0358 7.59091 1.55456
upperneck 2.90875 -49.6774 -1.43835
head 213.534 -129.857 -2.16703
rclavicle 2.98177e-014 -2.8625e-014
rhumerus -31.5722 -9.52893 -6.98197
rradius 36.7391
rwrist -26.4985
rhand -20.692 -9.08227
rfingers 7.12502
rthumb 5.67175 -38.9864
lclavicle 2.98177e-014 -2.8625e-014
lhumerus -13.6665 6.97589 0.291342
lradius 25.9757
lwrist -3.11236
lhand -13.0325 12.5663
lfingers 7.12502
lthumb 13.0618 42.1373
rfemur -7.05229 23.7207 17.2945
rtibia 33.8317
rfoot -43.7326 -24.2928
rtoes 4.35099
lfemur -6.83323 -26.3251 -18.9322
ltibia 33.4018
lfoot -29.6223 29.8847
ltoes 12.2577
2096
root 17.3573 15.1336 2.49287 1104.75 -91.347 -1106.83
lowerback 8.98571 1.51406 -0.201977
upperback 1.88004 1.78707 -3.23609
thorax -2.98724 0.843415 -3.44518
lowerneck -26.1107 7.49981 1.40476
upperneck 2.96299 -49.9754 -1.48041
head 213.659 -129.861 -2.18786
rclavicle 3.05134e-014 -4.69132e-014
rhumerus -31.6428 -9.56775 -6.94288
rradius 36.7278
rwrist -26.5304
rhand -20.7187 -8.95092
rfingers 7.12502
rthumb 5.64592 -38.8557
lclavicle 3.05134e-014 -4.69132e-014
lhumerus -13.5148 7.17529 0.395854
lradius 25.9628
lwrist -3.21093
lhand -13.0468 12.5504
lfingers 7.12502
lthumb 13.0481 42.1222
rfemur -7.06491 23.6823 17.1346
rtibia 33.8301
rfoot -43.6596 -24.3781
rtoes 4.1399
lfemur -6.83158 -26.3314 -19.0856
ltibia 33.4028
lfoot -29.6463 29.8581
ltoes 12.3882
2097
root 17.3577 15.133 2.49401 1105.15 -91.2733 -1107.24
lowerback 8.96394 1.51658 -0.147678
upperback 1.90988 1.79781 -3.21319
thorax -2.94261 0.849162 -3.45166
lowerneck -26.1444 7.44756 1.26082
upperneck 3.03552 -50.2998 -1.52265
head 213.843 -129.834 -2.28935
rclavicle 1.59028e-014 -4.85035e-014
rhumerus -31.6158 -9.66443 -6.91766
rradius 36.6129
rwrist -26.3218
rhand -20.6074 -8.7976
rfingers 7.12502
rthumb 5.75344 -38.6995
lclavicle 1.59028e-014 -4.85035e-014
lhumerus -13.4355 7.24109 0.464518
lradius 25.9886
lwrist -3.1581
lhand -13.103 12.5969
lfingers 7.12502
lthumb 12.9939 42.1722
rfemur -7.06341 23.6363 17.1549
rtibia 33.8348
rfoot -43.6053 -24.4838
rtoes 4.10205
lfemur -6.82826 -26.3407 -19.0596
ltibia 33.399
lfoot -29.7638 29.7242
ltoes 12.6092
2098
root 17.3587 15.1319 2.49493 1104.47 -91.2197 -1106.57
lowerback 8.97248 1.48305 -0.101286
upperback 1.9372 1.76031 -3.16641
thorax -2.92122 0.830904 -3.42452
lowerneck -26.1557 7.4636 1.1409
upperneck 3.04635 -50.3109 -1.54172
head 213.837 -129.997 -2.26141
rclavicle 3.67752e-015 1.03368e-014
rhumerus -31.4123 -9.83445 -6.94163
rradius 36.456
rwrist -26.0446
rhand -20.7518 -8.7802
rfingers 7.12502
rthumb 5.61403 -38.6858
lclavicle 3.67752e-015 1.03368e-014
lhumerus -13.4916 7.4776 0.48175
lradius 25.9572
lwrist -3.27557
lhand -13.0843 12.5827
lfingers 7.12502
lthumb 13.0119 42.1569
rfemur -7.03625 23.6181 17.194
rtibia 33.8199
rfoot -43.5685 -24.5259
rtoes 4.10307
lfemur -6.82927 -26.3309 -19.0224
ltibia 33.4157
lfoot -29.74 29.6706
ltoes 12.7651
